{
	"asset":{
		"generator":"Khronos glTF Blender I/O v4.2.70",
		"version":"2.0"
	},
	"extensionsUsed":[
		"KHR_materials_transmission",
		"KHR_materials_specular",
		"KHR_materials_ior"
	],
	"scene":0,
	"scenes":[
		{
			"name":"Scene",
			"nodes":[
				0
			]
		}
	],
	"nodes":[
		{
			"mesh":0,
			"name":"VaseCeramic_003",
			"rotation":[
				0.7071068286895752,
				0,
				0,
				0.7071068286895752
			],
			"scale":[
				0.04623483493924141,
				0.04623483493924141,
				0.04623483493924141
			],
			"translation":[
				0.042954087257385254,
				1.5390100479125977,
				0.013621391728520393
			]
		}
	],
	"materials":[
		{
			"doubleSided":true,
			"extensions":{
				"KHR_materials_transmission":{
					"transmissionFactor":1
				},
				"KHR_materials_specular":{
					"specularFactor":0.18000000715255737
				}
			},
			"name":"Black",
			"pbrMetallicRoughness":{
				"baseColorFactor":[
					0,
					0,
					0,
					1
				],
				"metallicFactor":0,
				"roughnessFactor":0.800000011920929
			}
		},
		{
			"doubleSided":true,
			"extensions":{
				"KHR_materials_specular":{
					"specularColorFactor":[
						2.0,
						2.0,
						2.0
					]
				},
				"KHR_materials_ior":{
					"ior":1.4500000476837158
				}
			},
			"name":"calla",
			"pbrMetallicRoughness":{
				"baseColorFactor":[
					0.015577048994600773,
					0.5,
					0,
					1
				],
				"metallicFactor":0,
				"roughnessFactor":0.5527864098548889
			}
		},
		{
			"doubleSided":true,
			"extensions":{
				"KHR_materials_specular":{
					"specularColorFactor":[
						2.0,
						2.0,
						2.0
					]
				},
				"KHR_materials_ior":{
					"ior":1.4500000476837158
				}
			},
			"name":"01 - Default",
			"pbrMetallicRoughness":{
				"baseColorFactor":[
					0.5,
					0.4597257673740387,
					0.07004359364509583,
					1
				],
				"metallicFactor":0,
				"roughnessFactor":0.5527864098548889
			}
		}
	],
	"meshes":[
		{
			"name":"VaseCeramic_003.001",
			"primitives":[
				{
					"attributes":{
						"POSITION":0,
						"NORMAL":1,
						"TEXCOORD_0":2,
						"TEXCOORD_1":3
					},
					"indices":4,
					"material":0
				},
				{
					"attributes":{
						"POSITION":5,
						"NORMAL":6,
						"TEXCOORD_0":7,
						"TEXCOORD_1":8
					},
					"indices":9,
					"material":1
				},
				{
					"attributes":{
						"POSITION":10,
						"NORMAL":11,
						"TEXCOORD_0":12,
						"TEXCOORD_1":13
					},
					"indices":14,
					"material":2
				}
			]
		}
	],
	"accessors":[
		{
			"bufferView":0,
			"componentType":5126,
			"count":2445,
			"max":[
				8.081951141357422,
				8.049591064453125,
				33.23450469970703
			],
			"min":[
				-9.273249626159668,
				-9.305609703063965,
				6.817105293273926
			],
			"type":"VEC3"
		},
		{
			"bufferView":1,
			"componentType":5126,
			"count":2445,
			"type":"VEC3"
		},
		{
			"bufferView":2,
			"componentType":5126,
			"count":2445,
			"type":"VEC2"
		},
		{
			"bufferView":3,
			"componentType":5126,
			"count":2445,
			"type":"VEC2"
		},
		{
			"bufferView":4,
			"componentType":5123,
			"count":11658,
			"type":"SCALAR"
		},
		{
			"bufferView":5,
			"componentType":5126,
			"count":31108,
			"max":[
				10.403044700622559,
				11.672365188598633,
				26.19058609008789
			],
			"min":[
				-9.892077445983887,
				-7.148338317871094,
				-19.7825870513916
			],
			"type":"VEC3"
		},
		{
			"bufferView":6,
			"componentType":5126,
			"count":31108,
			"type":"VEC3"
		},
		{
			"bufferView":7,
			"componentType":5126,
			"count":31108,
			"type":"VEC2"
		},
		{
			"bufferView":8,
			"componentType":5126,
			"count":31108,
			"type":"VEC2"
		},
		{
			"bufferView":9,
			"componentType":5123,
			"count":174912,
			"type":"SCALAR"
		},
		{
			"bufferView":10,
			"componentType":5126,
			"count":864,
			"max":[
				5.313181400299072,
				7.379932403564453,
				-1.0830726623535156
			],
			"min":[
				-5.233583927154541,
				-2.368973970413208,
				-15.787332534790039
			],
			"type":"VEC3"
		},
		{
			"bufferView":11,
			"componentType":5126,
			"count":864,
			"type":"VEC3"
		},
		{
			"bufferView":12,
			"componentType":5126,
			"count":864,
			"type":"VEC2"
		},
		{
			"bufferView":13,
			"componentType":5126,
			"count":864,
			"type":"VEC2"
		},
		{
			"bufferView":14,
			"componentType":5123,
			"count":4320,
			"type":"SCALAR"
		}
	],
	"bufferViews":[
		{
			"buffer":0,
			"byteLength":29340,
			"byteOffset":0,
			"target":34962
		},
		{
			"buffer":0,
			"byteLength":29340,
			"byteOffset":29340,
			"target":34962
		},
		{
			"buffer":0,
			"byteLength":19560,
			"byteOffset":58680,
			"target":34962
		},
		{
			"buffer":0,
			"byteLength":19560,
			"byteOffset":78240,
			"target":34962
		},
		{
			"buffer":0,
			"byteLength":23316,
			"byteOffset":97800,
			"target":34963
		},
		{
			"buffer":0,
			"byteLength":373296,
			"byteOffset":121116,
			"target":34962
		},
		{
			"buffer":0,
			"byteLength":373296,
			"byteOffset":494412,
			"target":34962
		},
		{
			"buffer":0,
			"byteLength":248864,
			"byteOffset":867708,
			"target":34962
		},
		{
			"buffer":0,
			"byteLength":248864,
			"byteOffset":1116572,
			"target":34962
		},
		{
			"buffer":0,
			"byteLength":349824,
			"byteOffset":1365436,
			"target":34963
		},
		{
			"buffer":0,
			"byteLength":10368,
			"byteOffset":1715260,
			"target":34962
		},
		{
			"buffer":0,
			"byteLength":10368,
			"byteOffset":1725628,
			"target":34962
		},
		{
			"buffer":0,
			"byteLength":6912,
			"byteOffset":1735996,
			"target":34962
		},
		{
			"buffer":0,
			"byteLength":6912,
			"byteOffset":1742908,
			"target":34962
		},
		{
			"buffer":0,
			"byteLength":8640,
			"byteOffset":1749820,
			"target":34963
		}
	],
	"buffers":[
		{
			"byteLength":1758460,
			"uri":"VasBunga.bin"
		}
	]
}
